<svg xmlns="http://www.w3.org/2000/svg" viewBox="0 0 363.89 78.1"><defs><style>.cls-1{fill:#24323a;}.cls-2{fill:#231f20;}</style></defs><title>Logo_Typeform</title><g id="Layer_2" data-name="Layer 2"><g id="Layer_1-2" data-name="Layer 1"><path class="cls-1" d="M1,1.1H37V3.83H3.68V24.59h29v2.72h-29V49.62H37v2.72H1Z"/><path class="cls-1" d="M71.7,1.1h2.87L95.63,52.34H92.68L85.76,35.41H60.51l-7,16.93H50.65ZM61.62,32.76h23L73.1,4.64Z"/><path class="cls-1" d="M145.65,8.91a16.58,16.58,0,0,1,2.54,9,16.37,16.37,0,0,1-3.5,10.27,16.43,16.43,0,0,1-8.94,6l13,18.18h-3.24L133,34.67l-2.35.08H112.12V52.34H109.4V1.1h19.5a32.75,32.75,0,0,1,5.56.41,16.87,16.87,0,0,1,4.23,1.29A16,16,0,0,1,145.65,8.91ZM131.33,32a13.62,13.62,0,0,0,7.07-1.91A14.36,14.36,0,0,0,143.55,25a13.63,13.63,0,0,0,1.92-7.07,13.88,13.88,0,0,0-2.25-7.73A13.54,13.54,0,0,0,137,5a21.93,21.93,0,0,0-8.1-1.18H112.12V32Z"/><path class="cls-1" d="M198.69,1.1V3.83H183.38V49.62h15.31v2.72h-33.2V49.62h15.24V3.83H165.49V1.1Z"/><path class="cls-1" d="M221.4,41.74A18.42,18.42,0,0,0,228,48.29a17.56,17.56,0,0,0,9,2.43,20.21,20.21,0,0,0,9-2,15.67,15.67,0,0,0,6.37-5.52,14.66,14.66,0,0,0,2.39-8h2.65a16.59,16.59,0,0,1-2.69,9.24,18.58,18.58,0,0,1-7.36,6.55,22.45,22.45,0,0,1-10.41,2.4,20.26,20.26,0,0,1-10.38-2.8,21,21,0,0,1-7.59-7.55,20,20,0,0,1-2.79-10.34V20.69a20.26,20.26,0,0,1,2.76-10.35,20.65,20.65,0,0,1,7.51-7.54A19.94,19.94,0,0,1,236.9,0a22.39,22.39,0,0,1,10.34,2.39,19.06,19.06,0,0,1,7.4,6.55,16.51,16.51,0,0,1,2.73,9.24h-2.66a14.4,14.4,0,0,0-2.42-7.95,16.23,16.23,0,0,0-6.37-5.52,20.12,20.12,0,0,0-9-2,17.37,17.37,0,0,0-9,2.43,18.22,18.22,0,0,0-6.55,6.56,17.34,17.34,0,0,0-2.43,9V32.76A17.21,17.21,0,0,0,221.4,41.74Z"/><path class="cls-1" d="M275.18,52.34V1.1h2.72V49.62h35.71v2.72Z"/><path class="cls-1" d="M327.82,1.1h36.07V3.83H330.54V24.59h29v2.72h-29V49.62h33.35v2.72H327.82Z"/><path class="cls-2" d="M11.66,66.11H7.39L5.76,77.83H2.59L4.25,66.11H0l.35-2.57H12Z"/><path class="cls-2" d="M26.3,63.54l-2,14.29H21.15L22,71.47H17.09l-.92,6.36H13l2-14.29h3.17L17.42,69h5l.76-5.47Z"/><path class="cls-2" d="M31.06,64.85c1-1,2.62-1.58,4.81-1.58s3.71.56,4.56,1.69,1.07,3.07.68,5.85S40,75.51,39,76.55s-2.61,1.55-4.8,1.55-3.76-.55-4.59-1.66-1.06-3.06-.69-5.88S30,65.91,31.06,64.85Zm4.71,1a2.67,2.67,0,0,0-2.36,1,10.3,10.3,0,0,0-1.14,4,8.14,8.14,0,0,0,0,3.77c.27.65.94,1,2,1a2.7,2.7,0,0,0,2.36-1,10.22,10.22,0,0,0,1.16-4,8.24,8.24,0,0,0,0-3.79C37.52,66.14,36.84,65.82,35.77,65.82Z"/><path class="cls-2" d="M57,63.54,55.79,72.2q-.47,3.27-1.86,4.58a6.16,6.16,0,0,1-4.37,1.32c-2,0-3.46-.47-4.31-1.41s-1.12-2.48-.83-4.62l1.21-8.53h3.16L47.57,72.2a4.48,4.48,0,0,0,.13,2.65c.27.47.89.7,1.86.7a2.75,2.75,0,0,0,2.15-.74,5.43,5.43,0,0,0,1-2.74l1.2-8.53Z"/><path class="cls-2" d="M68,69.57h3l-1.16,8.26h-2.3l-.09-1.76a5.69,5.69,0,0,1-4.3,2A3.22,3.22,0,0,1,60,76.3c-.62-1.2-.76-3.12-.45-5.74a16.23,16.23,0,0,1,.86-3.69,5.49,5.49,0,0,1,1.51-2.23A5.17,5.17,0,0,1,64,63.56a11.84,11.84,0,0,1,2.83-.29,15.76,15.76,0,0,1,4.37.52l-.39,2.3C69.27,66,68,66,66.9,66a3.58,3.58,0,0,0-2.83,1,7.89,7.89,0,0,0-1.21,3.88,9.33,9.33,0,0,0,0,3.59,1.47,1.47,0,0,0,1.57,1A3,3,0,0,0,65.92,75a7.42,7.42,0,0,0,1.43-1.08Z"/><path class="cls-2" d="M86.86,63.54l-2,14.29H81.7l.89-6.36h-5l-.91,6.36H73.56l2-14.29h3.17L78,69h5l.76-5.47Z"/><path class="cls-2" d="M101.17,66.11H96.91L95.27,77.83H92.1l1.66-11.72H89.51l.35-2.57h11.66Z"/><path class="cls-2" d="M108.63,72.4l-2.72-1.09a4,4,0,0,1-2.09-1.66,4.3,4.3,0,0,1-.35-2.55,4,4,0,0,1,1.58-3,7.84,7.84,0,0,1,4-.78,16.58,16.58,0,0,1,4.66.58L113.37,66c-1.24,0-2.72-.06-4.43-.06a4.33,4.33,0,0,0-1.72.2c-.3.14-.51.53-.6,1.17a1.34,1.34,0,0,0,.11,1,2.46,2.46,0,0,0,1,.59l2.57,1a3.93,3.93,0,0,1,2.15,1.6,4.46,4.46,0,0,1,.31,2.64,4.29,4.29,0,0,1-1.52,3.18,7.63,7.63,0,0,1-4.11.82,22.62,22.62,0,0,1-4.91-.56l.33-2.26,4.45.11a4.78,4.78,0,0,0,2-.28,1.51,1.51,0,0,0,.66-1.19,1.38,1.38,0,0,0-.12-1A2.16,2.16,0,0,0,108.63,72.4Z"/><path class="cls-2" d="M141.41,63.54,137.23,77a1.09,1.09,0,0,1-1.16.81h-3a1,1,0,0,1-.73-.28,1,1,0,0,1-.33-.67l-.27-9.24V65.82h-.39c-.18.76-.34,1.37-.48,1.84L128.05,77a1.1,1.1,0,0,1-1.18.83h-3a1.08,1.08,0,0,1-.73-.27.82.82,0,0,1-.33-.66l-.43-13.36h3.15v10q0,.36,0,1.11c0,.5,0,.83,0,1h.41q.11-.44.6-2.19l2.76-9a1.14,1.14,0,0,1,1.2-.91h2.67a.91.91,0,0,1,.71.3,1,1,0,0,1,.28.73l.4,9c0,.9,0,1.58,0,2H135c.21-.94.38-1.65.52-2.15l2.73-9.9Z"/><path class="cls-2" d="M150.57,74.1h-4.93l-1.53,3.73h-3.3l6-13.52a1.11,1.11,0,0,1,1.14-.77h3a1,1,0,0,1,.69.26.89.89,0,0,1,.33.63l2.23,13.4H151Zm-.33-2.5-.56-4.33c0-.31-.08-.77-.11-1.39H149c-.25.7-.41,1.16-.49,1.37l-1.81,4.35Z"/><path class="cls-2" d="M160,77.83h-3.17l2-14.29H162Z"/><path class="cls-2" d="M176.33,66.11h-4.27l-1.63,11.72h-3.17l1.66-11.72h-4.25l.35-2.57h11.66Z"/><path class="cls-2" d="M180.85,77.83h-3.17l2-14.29h3.16Z"/><path class="cls-2" d="M199,63.54,197.1,76.75a1.09,1.09,0,0,1-1.18,1.08h-1.76a1,1,0,0,1-.71-.23,2.21,2.21,0,0,1-.47-.76l-2.84-7.63a14.83,14.83,0,0,1-.62-2.15h-.2c0,.84-.09,1.59-.17,2.24L188,77.83h-3l1.86-13.21a1.1,1.1,0,0,1,1.2-1.08h1.74a1,1,0,0,1,.71.24,2.31,2.31,0,0,1,.45.75l2.76,7.38a23.39,23.39,0,0,1,.74,2.32h.25a16.66,16.66,0,0,1,.15-2.3L196,63.54Z"/><path class="cls-2" d="M210,69.57h3l-1.16,8.26h-2.3l-.08-1.76a5.71,5.71,0,0,1-4.31,2,3.24,3.24,0,0,1-3.12-1.8c-.61-1.2-.76-3.12-.44-5.74a15.71,15.71,0,0,1,.86-3.69A5.39,5.39,0,0,1,204,64.64a5.13,5.13,0,0,1,2.08-1.08,11.93,11.93,0,0,1,2.84-.29,15.81,15.81,0,0,1,4.37.52l-.39,2.3C211.33,66,210,66,209,66a3.6,3.6,0,0,0-2.83,1,8,8,0,0,0-1.21,3.88,9.33,9.33,0,0,0,0,3.59,1.48,1.48,0,0,0,1.58,1A3,3,0,0,0,208,75a7.74,7.74,0,0,0,1.43-1.08Z"/><path class="cls-2" d="M233.08,66.11h-4.27l-1.63,11.72H224l1.65-11.72h-4.24l.35-2.57h11.66Z"/><path class="cls-2" d="M237,64.85c1-1,2.62-1.58,4.82-1.58s3.71.56,4.55,1.69,1.07,3.07.69,5.85S246,75.51,245,76.55a6.52,6.52,0,0,1-4.8,1.55c-2.23,0-3.77-.55-4.6-1.66s-1.05-3.06-.68-5.88S236,65.91,237,64.85Zm4.71,1a2.68,2.68,0,0,0-2.36,1,10.3,10.3,0,0,0-1.14,4,8.24,8.24,0,0,0,0,3.77c.27.65.94,1,2,1a2.72,2.72,0,0,0,2.37-1,10.4,10.4,0,0,0,1.16-4,8.06,8.06,0,0,0,0-3.79C243.45,66.14,242.77,65.82,241.69,65.82Z"/><path class="cls-2" d="M255.4,77.83l2-14.29c1.23-.11,3-.17,5.2-.17a6.51,6.51,0,0,1,3.83.83c.72.55,1,1.56.79,3a4.3,4.3,0,0,1-.89,2.27,2.9,2.9,0,0,1-2,.87l0,.13q3,.23,2.44,3.89a3.86,3.86,0,0,1-1.45,2.87,7.12,7.12,0,0,1-3.74.74Q257.5,78,255.4,77.83Zm3.4-2.24H261a3.28,3.28,0,0,0,1.91-.4,2.49,2.49,0,0,0,.72-1.65c.11-.81,0-1.35-.22-1.62a2.44,2.44,0,0,0-1.65-.43h-2.4Zm.89-6.23h2.18a2.74,2.74,0,0,0,1.67-.4,2.31,2.31,0,0,0,.65-1.55c.09-.66,0-1.1-.21-1.31a2.33,2.33,0,0,0-1.49-.32h-2.3Z"/><path class="cls-2" d="M280.9,66h-5.34a1.25,1.25,0,0,0-.86.24,1.39,1.39,0,0,0-.34.88L274,69.3h5.64l-.29,2.23h-5.66l-.37,2.76a1,1,0,0,0,.14.82,1,1,0,0,0,.79.23h5.28l-.08,2.35c-1.21.13-3.28.2-6.19.2a3.21,3.21,0,0,1-2.55-.92,3,3,0,0,1-.6-2.52l1.14-8.16a3.16,3.16,0,0,1,1.07-2.07,3.54,3.54,0,0,1,2.35-.74,64.4,64.4,0,0,1,6.58.23Z"/><path class="cls-2" d="M301.92,63.54l-2,14.29h-3.15l.9-6.36h-5l-.91,6.36h-3.17l2-14.29h3.17L293,69h5l.76-5.47Z"/><path class="cls-2" d="M315.13,66h-5.34a1.25,1.25,0,0,0-.86.24,1.51,1.51,0,0,0-.34.88l-.31,2.16h5.63l-.29,2.23H308l-.37,2.76a1,1,0,0,0,.13.82,1.06,1.06,0,0,0,.8.23h5.28l-.08,2.35c-1.22.13-3.28.2-6.2.2A3.18,3.18,0,0,1,305,77a3,3,0,0,1-.6-2.52l1.14-8.16a3.15,3.15,0,0,1,1.06-2.07,3.56,3.56,0,0,1,2.35-.74,64.63,64.63,0,0,1,6.59.23Z"/><path class="cls-2" d="M325.49,74.1h-4.93L319,77.83h-3.29l6-13.52a1.11,1.11,0,0,1,1.14-.77h3a1,1,0,0,1,.7.26.88.88,0,0,1,.32.63l2.23,13.4H326Zm-.33-2.5-.56-4.33c0-.31-.08-.77-.1-1.39h-.6c-.25.7-.42,1.16-.5,1.37l-1.8,4.35Z"/><path class="cls-2" d="M331.77,77.83l2-14.29c1.27-.12,3-.19,5.29-.19a6.21,6.21,0,0,1,3.9,1q1.23,1,.9,3.36a4.51,4.51,0,0,1-.94,2.37,3.36,3.36,0,0,1-2.27,1.05l0,.12a2.33,2.33,0,0,1,1.72,2.2l.74,4.39h-3.23l-.66-4.43a1.4,1.4,0,0,0-.35-.9,1.25,1.25,0,0,0-.85-.24l-2.36,0-.79,5.59Zm4.22-8h2.24a2.05,2.05,0,0,0,2.48-2.15,1.84,1.84,0,0,0-.2-1.48,2.1,2.1,0,0,0-1.52-.4l-2.44,0Z"/><path class="cls-2" d="M346.28,77.83l2-14.29c1.8-.12,3.5-.19,5.12-.19a8.1,8.1,0,0,1,3.66.67,3.47,3.47,0,0,1,1.77,2.29,11.28,11.28,0,0,1,.08,4.5,19.21,19.21,0,0,1-.84,3.73,5.1,5.1,0,0,1-1.41,2.18,4.6,4.6,0,0,1-2,1,13.78,13.78,0,0,1-3,.26C350.13,78,348.33,78,346.28,77.83Zm4.85-12-1.37,9.67h1.89a5.58,5.58,0,0,0,1.58-.18,2.37,2.37,0,0,0,1.09-.7,3.65,3.65,0,0,0,.78-1.5,20.63,20.63,0,0,0,.5-2.59,18.68,18.68,0,0,0,.24-2.44,2.94,2.94,0,0,0-.27-1.43,1.34,1.34,0,0,0-.79-.71,5.18,5.18,0,0,0-1.48-.16Z"/></g></g></svg>