<svg xmlns="http://www.w3.org/2000/svg" viewBox="0 0 525.5 150.28"><defs><style>.cls-1{fill:#a3a6a9;}.cls-2{fill:#9fd9d7;}.cls-3{fill:#24323a;}.cls-4{fill:#231f20;}</style></defs><title>FullLogo_no_background</title><g id="Layer_2" data-name="Layer 2"><g id="Layer_1-2" data-name="Layer 1"><path class="cls-1" d="M62.41,39.11l-3.08,3.1-.54,0a12.48,12.48,0,0,0-17.3,17.42l0,.55-3.08,3.09-.63,0A17.65,17.65,0,0,1,62.37,38.48Z"/><path class="cls-1" d="M83.66,13.33l-3,3-.59,0a43.76,43.76,0,0,0-31-11.25,45.67,45.67,0,0,0-44,44.26,43.73,43.73,0,0,0,11.45,31v.58l-3,3h-.61A48.63,48.63,0,0,1,0,49.39,50.78,50.78,0,0,1,49.06,0,48.55,48.55,0,0,1,83.64,12.72Z"/><path class="cls-1" d="M70.87,25.71l-3,3-.58,0c-10.62-9-26.76-8.18-36.75,1.87a27.25,27.25,0,0,0-1.62,36.77l0,.57-3,3-.62,0C14.22,58.42,15,39.15,27,27s31.3-13,43.87-1.95Z"/><path class="cls-2" d="M128.38,111.91a19.66,19.66,0,0,1-6.38,8.62,15.61,15.61,0,0,1-5.74,3,.81.81,0,0,0-.59.62,34.93,34.93,0,0,1-3.07,7.4,35.82,35.82,0,0,1-9.28,10.55A41.51,41.51,0,0,1,87.06,150a14.68,14.68,0,0,1-7.27-.3A40.85,40.85,0,0,1,59.3,137a30.73,30.73,0,0,1-6.55-11.85A2.87,2.87,0,0,0,50.84,123a20.27,20.27,0,0,1-10.58-9.87,13.19,13.19,0,0,1-1.17-7.29,16.19,16.19,0,0,1,3.17-8.65,18.59,18.59,0,0,1,2.3-2.31,1,1,0,0,0,.38-1,76.78,76.78,0,0,1-1.13-13.54,47.45,47.45,0,0,1,3.5-18.16,33.83,33.83,0,0,1,7.94-11.58,37.44,37.44,0,0,1,18.88-9.43A50.9,50.9,0,0,1,89,40.42a41.18,41.18,0,0,1,17.31,5.37,33.3,33.3,0,0,1,10.47,9.68,37.82,37.82,0,0,1,5.64,12.41,54.08,54.08,0,0,1,1.66,14.05,79.47,79.47,0,0,1-1,12.13c-.05.29-.14.57.21.81a14,14,0,0,1,5.24,8.38A14.54,14.54,0,0,1,128.38,111.91Z"/><path class="cls-3" d="M162.57,57.54h36.08v2.73H165.3V81h29v2.72h-29v22.31h33.35v2.72H162.57Z"/><path class="cls-3" d="M233.32,57.54h2.87l21.05,51.24H254.3l-6.92-16.93H222.13l-7,16.93h-2.88ZM223.23,89.2h23.05L234.72,61.08Z"/><path class="cls-3" d="M307.27,65.35a16.58,16.58,0,0,1,2.54,9A16.89,16.89,0,0,1,297.37,90.6l13,18.18h-3.24L294.57,91.11l-2.36.08H273.73v17.59H271V57.54h19.51a32.83,32.83,0,0,1,5.56.41,17.13,17.13,0,0,1,4.23,1.29A16,16,0,0,1,307.27,65.35ZM293,88.46A13.62,13.62,0,0,0,300,86.55a14.52,14.52,0,0,0,5.15-5.15,13.62,13.62,0,0,0,1.91-7.07,14,14,0,0,0-2.24-7.73,13.54,13.54,0,0,0-6.22-5.15,22,22,0,0,0-8.1-1.18H273.73V88.46Z"/><path class="cls-3" d="M360.31,57.54v2.73H345v45.79h15.31v2.72h-33.2v-2.72h15.24V60.27H327.11V57.54Z"/><path class="cls-3" d="M383,98.18a18.39,18.39,0,0,0,6.62,6.55,17.59,17.59,0,0,0,9,2.43,20.22,20.22,0,0,0,9.06-2,15.67,15.67,0,0,0,6.37-5.52,14.66,14.66,0,0,0,2.39-8h2.65a16.67,16.67,0,0,1-2.69,9.24,18.65,18.65,0,0,1-7.36,6.55,22.49,22.49,0,0,1-10.42,2.4,20.26,20.26,0,0,1-10.38-2.8,20.86,20.86,0,0,1-7.58-7.55,19.94,19.94,0,0,1-2.8-10.34V77.13a20.26,20.26,0,0,1,2.76-10.35,20.72,20.72,0,0,1,7.51-7.54,20,20,0,0,1,10.35-2.8,22.45,22.45,0,0,1,10.34,2.39,19.13,19.13,0,0,1,7.4,6.55A16.58,16.58,0,0,1,419,74.62h-2.65a14.5,14.5,0,0,0-2.43-8,16.09,16.09,0,0,0-6.37-5.52,20.08,20.08,0,0,0-9-2,17.4,17.4,0,0,0-9,2.43A18.28,18.28,0,0,0,383,68.14a17.4,17.4,0,0,0-2.43,9V89.2A17.12,17.12,0,0,0,383,98.18Z"/><path class="cls-3" d="M436.8,108.78V57.54h2.72v48.52h35.7v2.72Z"/><path class="cls-3" d="M489.43,57.54H525.5v2.73H492.15V81h29v2.72h-29v22.31H525.5v2.72H489.43Z"/><path class="cls-4" d="M173.28,122.55H169l-1.64,11.72H164.2l1.66-11.72h-4.24L162,120h11.66Z"/><path class="cls-4" d="M187.92,120l-2,14.29h-3.15l.89-6.36h-5l-.91,6.36h-3.17l2-14.29h3.17l-.77,5.47h5l.77-5.47Z"/><path class="cls-4" d="M192.67,121.29c1-1.05,2.62-1.58,4.82-1.58s3.71.56,4.55,1.69,1.07,3.07.69,5.85-1.07,4.7-2.08,5.74a6.52,6.52,0,0,1-4.8,1.55q-3.36,0-4.6-1.66c-.83-1.1-1.05-3.06-.68-5.88S191.66,122.35,192.67,121.29Zm4.71,1a2.68,2.68,0,0,0-2.36,1,10.3,10.3,0,0,0-1.14,4,8.44,8.44,0,0,0,0,3.77c.28.65.95,1,2,1a2.69,2.69,0,0,0,2.36-1,10.05,10.05,0,0,0,1.16-4,8,8,0,0,0,0-3.79C199.14,122.57,198.46,122.26,197.38,122.26Z"/><path class="cls-4" d="M218.65,120l-1.24,8.66a7.8,7.8,0,0,1-1.86,4.58,6.17,6.17,0,0,1-4.37,1.32c-2,0-3.47-.47-4.31-1.41s-1.12-2.48-.83-4.62l1.2-8.53h3.17l-1.22,8.66a4.59,4.59,0,0,0,.12,2.65c.28.47.9.7,1.87.7a2.77,2.77,0,0,0,2.15-.74,5.44,5.44,0,0,0,.95-2.74l1.2-8.53Z"/><path class="cls-4" d="M229.57,126h3l-1.16,8.26h-2.3l-.08-1.76a5.71,5.71,0,0,1-4.31,2,3.21,3.21,0,0,1-3.11-1.8c-.62-1.2-.77-3.12-.45-5.74a15.71,15.71,0,0,1,.86-3.69,5.39,5.39,0,0,1,1.51-2.23,5.13,5.13,0,0,1,2.08-1.08,11.93,11.93,0,0,1,2.84-.29,15.81,15.81,0,0,1,4.37.52l-.39,2.3c-1.56-.07-2.88-.11-3.94-.11a3.6,3.6,0,0,0-2.83,1,8.11,8.11,0,0,0-1.21,3.88,9.33,9.33,0,0,0,0,3.59,1.48,1.48,0,0,0,1.58,1,3,3,0,0,0,1.49-.34,7.74,7.74,0,0,0,1.43-1.08Z"/><path class="cls-4" d="M248.48,120l-2,14.29h-3.15l.89-6.36h-5l-.91,6.36h-3.17l2-14.29h3.17l-.77,5.47h5l.77-5.47Z"/><path class="cls-4" d="M262.79,122.55h-4.27l-1.63,11.72h-3.17l1.65-11.72h-4.24l.35-2.57h11.66Z"/><path class="cls-4" d="M270.24,128.84l-2.71-1.09a3.91,3.91,0,0,1-2.09-1.66,4.23,4.23,0,0,1-.35-2.55,3.91,3.91,0,0,1,1.58-3.05,7.82,7.82,0,0,1,4-.78,16.62,16.62,0,0,1,4.66.58l-.31,2.13c-1.25,0-2.72-.06-4.44-.06a4.37,4.37,0,0,0-1.72.2q-.45.21-.6,1.17a1.34,1.34,0,0,0,.12,1,2.44,2.44,0,0,0,1,.59l2.57,1a4,4,0,0,1,2.16,1.6,4.54,4.54,0,0,1,.31,2.64,4.29,4.29,0,0,1-1.53,3.18,7.58,7.58,0,0,1-4.11.82,22.69,22.69,0,0,1-4.91-.56l.34-2.26,4.45.11a4.81,4.81,0,0,0,2-.28,1.56,1.56,0,0,0,.66-1.19,1.43,1.43,0,0,0-.13-1A2.09,2.09,0,0,0,270.24,128.84Z"/><path class="cls-4" d="M303,120l-4.18,13.48a1.1,1.1,0,0,1-1.16.81h-3A1,1,0,0,1,294,134a.92.92,0,0,1-.33-.67l-.27-9.24v-1.82H293c-.17.76-.33,1.37-.47,1.84l-2.84,9.34a1.11,1.11,0,0,1-1.18.83h-3a1.13,1.13,0,0,1-.74-.27.84.84,0,0,1-.32-.66L284,120h3.14v10q0,.36,0,1.11t0,1h.42q.11-.43.6-2.19l2.75-9a1.15,1.15,0,0,1,1.2-.91h2.67a1,1,0,0,1,.72.3,1,1,0,0,1,.28.73l.39,9c0,.9,0,1.58,0,2.05h.44c.2-.94.38-1.65.51-2.15l2.74-9.9Z"/><path class="cls-4" d="M312.18,130.54h-4.93l-1.53,3.73h-3.29l6-13.52a1.12,1.12,0,0,1,1.14-.77h3a1,1,0,0,1,.69.26.85.85,0,0,1,.32.63l2.24,13.4h-3.15Zm-.33-2.5-.56-4.33c0-.31-.07-.77-.1-1.39h-.6c-.25.7-.42,1.16-.5,1.37l-1.8,4.35Z"/><path class="cls-4" d="M321.63,134.27h-3.17l2-14.29h3.17Z"/><path class="cls-4" d="M338,122.55h-4.27L332,134.27h-3.16l1.65-11.72h-4.24l.35-2.57H338.3Z"/><path class="cls-4" d="M342.46,134.27h-3.17l2-14.29h3.17Z"/><path class="cls-4" d="M360.58,120l-1.86,13.21a1.09,1.09,0,0,1-1.18,1.08h-1.76a1,1,0,0,1-.72-.23,2.51,2.51,0,0,1-.46-.76l-2.84-7.63a13.67,13.67,0,0,1-.62-2.15h-.21c0,.84-.08,1.59-.16,2.24l-1.18,8.53h-3l1.87-13.21a1.09,1.09,0,0,1,1.2-1.08h1.74a1,1,0,0,1,.7.24,2.15,2.15,0,0,1,.46.75l2.75,7.38a21.22,21.22,0,0,1,.75,2.32h.25a18.33,18.33,0,0,1,.14-2.3l1.14-8.39Z"/><path class="cls-4" d="M371.62,126h3l-1.16,8.26h-2.3l-.09-1.76a5.69,5.69,0,0,1-4.3,2,3.22,3.22,0,0,1-3.12-1.8c-.61-1.2-.76-3.12-.44-5.74a15.76,15.76,0,0,1,.85-3.69,5.41,5.41,0,0,1,1.52-2.23,5.07,5.07,0,0,1,2.08-1.08,11.84,11.84,0,0,1,2.83-.29,15.88,15.88,0,0,1,4.38.52l-.4,2.3c-1.56-.07-2.87-.11-3.93-.11a3.58,3.58,0,0,0-2.83,1,7.89,7.89,0,0,0-1.21,3.88,9.33,9.33,0,0,0,0,3.59,1.46,1.46,0,0,0,1.57,1,3,3,0,0,0,1.49-.34,7.42,7.42,0,0,0,1.43-1.08Z"/><path class="cls-4" d="M394.69,122.55h-4.26l-1.64,11.72h-3.17l1.66-11.72H383l.36-2.57h11.66Z"/><path class="cls-4" d="M398.6,121.29c1-1.05,2.62-1.58,4.81-1.58s3.72.56,4.56,1.69,1.07,3.07.68,5.85-1.06,4.7-2.08,5.74-2.61,1.55-4.79,1.55-3.77-.55-4.6-1.66-1.06-3.06-.68-5.88S397.58,122.35,398.6,121.29Zm4.71,1a2.68,2.68,0,0,0-2.36,1,10.3,10.3,0,0,0-1.14,4,8.29,8.29,0,0,0,0,3.77c.28.65.95,1,2,1a2.69,2.69,0,0,0,2.36-1,10.22,10.22,0,0,0,1.16-4,8.1,8.1,0,0,0,0-3.79C405.07,122.57,404.39,122.26,403.31,122.26Z"/><path class="cls-4" d="M417,134.27,419,120c1.23-.11,3-.17,5.2-.17a6.55,6.55,0,0,1,3.83.83c.72.55,1,1.56.79,3a4.3,4.3,0,0,1-.89,2.27,2.94,2.94,0,0,1-2,.87l0,.13q3,.23,2.44,3.89a3.89,3.89,0,0,1-1.45,2.87,7.19,7.19,0,0,1-3.75.74Q419.12,134.44,417,134.27Zm3.4-2.24h2.21a3.3,3.3,0,0,0,1.92-.4,2.49,2.49,0,0,0,.71-1.65,2.07,2.07,0,0,0-.21-1.62,2.46,2.46,0,0,0-1.65-.43H421Zm.89-6.23h2.17a2.68,2.68,0,0,0,1.68-.41,2.26,2.26,0,0,0,.64-1.54c.1-.66,0-1.1-.2-1.31a2.37,2.37,0,0,0-1.5-.32h-2.29Z"/><path class="cls-4" d="M442.52,122.46h-5.35a1.26,1.26,0,0,0-.86.24,1.48,1.48,0,0,0-.34.88l-.31,2.16h5.63L441,128h-5.65l-.37,2.76a1,1,0,0,0,.13.82,1.11,1.11,0,0,0,.8.23h5.28l-.08,2.34q-1.83.21-6.19.21a3.24,3.24,0,0,1-2.55-.92,3,3,0,0,1-.6-2.52l1.14-8.16a3.2,3.2,0,0,1,1.06-2.07,3.56,3.56,0,0,1,2.35-.74q4.51,0,6.59.22Z"/><path class="cls-4" d="M463.54,120l-2,14.29h-3.15l.89-6.36h-4.95l-.91,6.36h-3.17l2-14.29h3.17l-.77,5.47h5l.77-5.47Z"/><path class="cls-4" d="M476.75,122.46h-5.34a1.25,1.25,0,0,0-.86.24,1.42,1.42,0,0,0-.34.88l-.31,2.16h5.63l-.29,2.23h-5.65l-.38,2.76a1,1,0,0,0,.14.82,1.08,1.08,0,0,0,.79.23h5.29l-.09,2.34c-1.21.14-3.28.21-6.19.21a3.24,3.24,0,0,1-2.55-.92,3,3,0,0,1-.6-2.52l1.14-8.16a3.21,3.21,0,0,1,1.07-2.07,3.54,3.54,0,0,1,2.35-.74q4.51,0,6.58.22Z"/><path class="cls-4" d="M487.11,130.54h-4.93l-1.54,3.73h-3.29l6-13.52a1.1,1.1,0,0,1,1.14-.77h3a1,1,0,0,1,.69.26.85.85,0,0,1,.32.63l2.24,13.4h-3.15Zm-.34-2.5-.55-4.33c-.05-.31-.08-.77-.11-1.39h-.6c-.25.7-.41,1.16-.5,1.37l-1.8,4.35Z"/><path class="cls-4" d="M493.38,134.27l2-14.29c1.27-.13,3-.19,5.28-.19a6.26,6.26,0,0,1,3.91,1q1.23,1,.9,3.36a4.51,4.51,0,0,1-1,2.37,3.37,3.37,0,0,1-2.26,1l0,.12a2.35,2.35,0,0,1,1.72,2.2l.74,4.39h-3.23l-.66-4.43a1.52,1.52,0,0,0-.35-.9,1.29,1.29,0,0,0-.85-.24l-2.37,0-.78,5.59Zm4.23-8h2.23a2.07,2.07,0,0,0,2.49-2.15,1.79,1.79,0,0,0-.21-1.48,2.07,2.07,0,0,0-1.51-.4l-2.44,0Z"/><path class="cls-4" d="M507.9,134.27l2-14.29c1.79-.13,3.5-.19,5.11-.19a8.12,8.12,0,0,1,3.67.67,3.47,3.47,0,0,1,1.77,2.29,11.31,11.31,0,0,1,.07,4.5,19.21,19.21,0,0,1-.84,3.73,5,5,0,0,1-1.4,2.18,4.76,4.76,0,0,1-2,1,13.88,13.88,0,0,1-3,.26C511.74,134.46,509.94,134.39,507.9,134.27Zm4.85-12L511.38,132h1.88a5.65,5.65,0,0,0,1.59-.18,2.48,2.48,0,0,0,1.09-.7,3.53,3.53,0,0,0,.77-1.5,18.75,18.75,0,0,0,.51-2.59,20.63,20.63,0,0,0,.24-2.44,3.2,3.2,0,0,0-.27-1.43,1.35,1.35,0,0,0-.8-.71,5.06,5.06,0,0,0-1.47-.16Z"/></g></g></svg>